<svg xmlns="http://www.w3.org/2000/svg" viewBox="-0.5 -0.5 16 16" id="Dollar-Sign-Circle--Streamline-Atlas.svg" height="16" width="16"><desc>Dollar Sign Circle Streamline Icon: https://streamlinehq.com</desc><defs></defs><g id="dolar_coin"><path d="M14.0625 7.5A6.5625 6.5625 0 1 1 7.5 0.9375 6.5625 6.5625 0 0 1 14.0625 7.5" fill="none" stroke="#000000" stroke-linecap="square" stroke-miterlimit="10" stroke-width="1"></path><path d="M5.7125 9.8875H8.125a1.1937499999999999 1.1937499999999999 0 0 0 1.1937499999999999 -1.1937499999999999h0A1.1875 1.1875 0 0 0 8.125 7.5h-1.1875a1.1875 1.1875 0 0 1 -1.1937499999999999 -1.1937499999999999h0a1.1937499999999999 1.1937499999999999 0 0 1 1.1937499999999999 -1.1937499999999999h2.38125" fill="none" stroke="#000000" stroke-linecap="square" stroke-miterlimit="10" stroke-width="1"></path><path d="m7.5 3.9187499999999997 0 1.1937499999999999" fill="none" stroke="#000000" stroke-linecap="square" stroke-miterlimit="10" stroke-width="1"></path><path d="m7.5 9.8875 0 1.1937499999999999" fill="none" stroke="#000000" stroke-linecap="square" stroke-miterlimit="10" stroke-width="1"></path></g></svg>