<svg id="Cement-Truck--Streamline-Atlas.svg" xmlns="http://www.w3.org/2000/svg" viewBox="-0.5 -0.5 16 16" height="16" width="16"><desc>Cement Truck Streamline Icon: https://streamlinehq.com</desc><defs></defs><path d="M2.13125 11.675a1.1937499999999999 1.1937499999999999 0 1 0 2.3874999999999997 0 1.1937499999999999 1.1937499999999999 0 1 0 -2.3874999999999997 0" fill="none" stroke="#000000" stroke-miterlimit="10" stroke-width="1"></path><path d="M10.48125 11.675a1.1937499999999999 1.1937499999999999 0 1 0 2.3874999999999997 0 1.1937499999999999 1.1937499999999999 0 1 0 -2.3874999999999997 0" fill="none" stroke="#000000" stroke-miterlimit="10" stroke-width="1"></path><path d="m12.86875 11.675 1.1937499999999999 0 0 -2.9812499999999997 0 -0.59375 -1.1937499999999999 -3.5812500000000003 -2.3874999999999997 0 0 4.175 0 2.9812499999999997" fill="none" stroke="#000000" stroke-miterlimit="10" stroke-width="1"></path><path d="m12.275 8.69375 1.7874999999999999 0" fill="none" stroke="#000000" stroke-miterlimit="10" stroke-width="1"></path><path d="m4.518750000000001 11.675 5.9624999999999995 0 0 -2.9812499999999997 -2.38125 0 -2.3874999999999997 0 -2.3874999999999997 0 -0.6 0 -1.7874999999999999 0 0 2.9812499999999997 1.1937499999999999 0" fill="none" stroke="#000000" stroke-miterlimit="10" stroke-width="1"></path><path d="M6.30625 8.69375H4.518750000000001L0.9375 6.30625l1.1937499999999999 -4.175h4.175a2.3874999999999997 2.3874999999999997 0 0 1 2.3874999999999997 2.3874999999999997v1.7874999999999999a2.3874999999999997 2.3874999999999997 0 0 1 -2.3874999999999997 2.3874999999999997Z" fill="none" stroke="#000000" stroke-miterlimit="10" stroke-width="1"></path><path d="m5.1125 2.13125 -1.7874999999999999 5.9624999999999995" fill="none" stroke="#000000" stroke-miterlimit="10" stroke-width="1"></path><path d="m7.5 2.725 -1.7874999999999999 5.96875" fill="none" stroke="#000000" stroke-miterlimit="10" stroke-width="1"></path></svg>