<svg id="Cement-Mixer--Streamline-Atlas.svg" xmlns="http://www.w3.org/2000/svg" viewBox="-0.5 -0.5 16 16" height="16" width="16"><desc>Cement Mixer Streamline Icon: https://streamlinehq.com</desc><defs></defs><path d="M4.518750000000001 11.08125H0.9375V3.9187499999999997l1.7874999999999999 -1.7874999999999999h1.7937500000000002Z" fill="none" stroke="#000000" stroke-miterlimit="10" stroke-width="1"></path><path d="m2.725 6.30625 -1.7874999999999999 0" fill="none" stroke="#000000" stroke-miterlimit="10" stroke-width="1"></path><path d="m2.725 8.69375 -1.7874999999999999 0" fill="none" stroke="#000000" stroke-miterlimit="10" stroke-width="1"></path><path d="m14.0625 3.325 0 7.75625 -9.54375 0" fill="none" stroke="#000000" stroke-miterlimit="10" stroke-width="1"></path><path d="M2.13125 12.56875a1.4937500000000001 1.4937500000000001 0 1 0 2.9875000000000003 0 1.4937500000000001 1.4937500000000001 0 1 0 -2.9875000000000003 0" fill="none" stroke="#000000" stroke-miterlimit="10" stroke-width="1"></path><path d="M9.88125 12.56875a1.4937500000000001 1.4937500000000001 0 1 0 2.9875000000000003 0 1.4937500000000001 1.4937500000000001 0 1 0 -2.9875000000000003 0" fill="none" stroke="#000000" stroke-miterlimit="10" stroke-width="1"></path><path d="M9.2875 8.69375a2.9875000000000003 2.9875000000000003 0 0 1 -2.9812499999999997 -2.9812499999999997V2.725L7.5 0.9375h3.5812500000000003l1.1937499999999999 1.7874999999999999v2.9875000000000003a2.9875000000000003 2.9875000000000003 0 0 1 -2.9875000000000003 2.9812499999999997Z" fill="none" stroke="#000000" stroke-miterlimit="10" stroke-width="1"></path><path d="m14.0625 5.1125 -1.7874999999999999 0" fill="none" stroke="#000000" stroke-miterlimit="10" stroke-width="1"></path><path d="m6.90625 5.1125 -1.7937500000000002 0" fill="none" stroke="#000000" stroke-miterlimit="10" stroke-width="1"></path><path d="m6.30625 3.325 4.175 0" fill="none" stroke="#000000" stroke-miterlimit="10" stroke-width="1"></path></svg>