<svg id="Wall--Streamline-Atlas.svg" xmlns="http://www.w3.org/2000/svg" viewBox="-0.5 -0.5 16 16" height="16" width="16"><desc>Wall Streamline Icon: https://streamlinehq.com</desc><defs></defs><path d="M0.7163124999999999 10.891874999999999H5.240749999999999V13.151124999999999H0.7163124999999999" fill="none" stroke="#000000" stroke-miterlimit="10" stroke-width="1"></path><path d="M5.240749999999999 10.891874999999999H9.7651875V13.151124999999999H5.240749999999999Z" fill="none" stroke="#000000" stroke-miterlimit="10" stroke-width="1"></path><path d="M2.9755625 8.632562499999999H7.5V10.891874999999999H2.9755625Z" fill="none" stroke="#000000" stroke-miterlimit="10" stroke-width="1"></path><path d="M7.5 8.632562499999999H12.024437500000001V10.891874999999999H7.5Z" fill="none" stroke="#000000" stroke-miterlimit="10" stroke-width="1"></path><path d="M2.9755625 4.108125H7.5V6.3674375H2.9755625Z" fill="none" stroke="#000000" stroke-miterlimit="10" stroke-width="1"></path><path d="M7.5 4.108125H12.024437500000001V6.3674375H7.5Z" fill="none" stroke="#000000" stroke-miterlimit="10" stroke-width="1"></path><path d="M14.2836875 13.151124999999999H9.75925V10.891874999999999H14.2836875" fill="none" stroke="#000000" stroke-miterlimit="10" stroke-width="1"></path><path d="M0.7163124999999999 6.3674375H5.240749999999999V8.632562499999999H0.7163124999999999" fill="none" stroke="#000000" stroke-miterlimit="10" stroke-width="1"></path><path d="M5.240749999999999 6.3674375H9.7651875V8.6266875H5.240749999999999Z" fill="none" stroke="#000000" stroke-miterlimit="10" stroke-width="1"></path><path d="M14.2836875 8.632562499999999H9.75925V6.3674375H14.2836875" fill="none" stroke="#000000" stroke-miterlimit="10" stroke-width="1"></path><path d="M0.7163124999999999 1.848875H5.240749999999999V4.108125H0.7163124999999999" fill="none" stroke="#000000" stroke-miterlimit="10" stroke-width="1"></path><path d="M5.240749999999999 1.848875H9.7651875V4.108125H5.240749999999999Z" fill="none" stroke="#000000" stroke-miterlimit="10" stroke-width="1"></path><path d="M14.2836875 4.108125H9.75925V1.848875H14.2836875" fill="none" stroke="#000000" stroke-miterlimit="10" stroke-width="1"></path></svg>